<mxfile host="Electron" modified="2024-04-14T01:08:44.410Z" agent="Mozilla/5.0 (Windows NT 10.0; Win64; x64) AppleWebKit/537.36 (KHTML, like Gecko) draw.io/24.1.0 Chrome/120.0.6099.109 Electron/28.1.0 Safari/537.36" etag="Ws6jJ-4tQnV5gz9Fz32z" version="24.1.0" type="device">
  <diagram name="Page-1" id="qQu68bGwrZ1H0IuVZzGX">
    <mxGraphModel dx="1050" dy="621" grid="1" gridSize="10" guides="1" tooltips="1" connect="1" arrows="1" fold="1" page="1" pageScale="1" pageWidth="827" pageHeight="1169" math="0" shadow="0">
      <root>
        <mxCell id="0" />
        <mxCell id="1" parent="0" />
        <mxCell id="-KbUTqGcur0VWZPNFBT9-1" value="" style="ellipse;html=1;" vertex="1" parent="1">
          <mxGeometry x="383.75" y="70" width="30" height="30" as="geometry" />
        </mxCell>
        <mxCell id="-KbUTqGcur0VWZPNFBT9-2" value="" style="endArrow=open;html=1;rounded=0;align=center;verticalAlign=top;endFill=0;labelBackgroundColor=none;endSize=6;entryX=0.5;entryY=0;entryDx=0;entryDy=0;" edge="1" parent="1" source="-KbUTqGcur0VWZPNFBT9-1" target="-KbUTqGcur0VWZPNFBT9-4">
          <mxGeometry relative="1" as="geometry">
            <mxPoint x="395" y="160" as="targetPoint" />
          </mxGeometry>
        </mxCell>
        <mxCell id="-KbUTqGcur0VWZPNFBT9-3" style="edgeStyle=orthogonalEdgeStyle;rounded=0;orthogonalLoop=1;jettySize=auto;html=1;exitX=0.5;exitY=1;exitDx=0;exitDy=0;entryX=0.5;entryY=0;entryDx=0;entryDy=0;" edge="1" parent="1" source="-KbUTqGcur0VWZPNFBT9-4" target="-KbUTqGcur0VWZPNFBT9-5">
          <mxGeometry relative="1" as="geometry">
            <mxPoint x="395" y="300" as="targetPoint" />
          </mxGeometry>
        </mxCell>
        <mxCell id="-KbUTqGcur0VWZPNFBT9-4" value="Administrator odabire aktivnosti koju želi izbrisati" style="rounded=1;whiteSpace=wrap;html=1;" vertex="1" parent="1">
          <mxGeometry x="331.25" y="170" width="135" height="60" as="geometry" />
        </mxCell>
        <mxCell id="-KbUTqGcur0VWZPNFBT9-5" value="Sustav prikazuje detalje o aktivnosti koju administrator želi izbrisati" style="rounded=1;whiteSpace=wrap;html=1;" vertex="1" parent="1">
          <mxGeometry x="327.5" y="300" width="142.5" height="60" as="geometry" />
        </mxCell>
        <mxCell id="-KbUTqGcur0VWZPNFBT9-6" style="edgeStyle=orthogonalEdgeStyle;rounded=0;orthogonalLoop=1;jettySize=auto;html=1;exitX=0.5;exitY=1;exitDx=0;exitDy=0;entryX=0.5;entryY=0;entryDx=0;entryDy=0;" edge="1" parent="1" source="-KbUTqGcur0VWZPNFBT9-5" target="-KbUTqGcur0VWZPNFBT9-8">
          <mxGeometry relative="1" as="geometry">
            <mxPoint x="398.75" y="490" as="sourcePoint" />
          </mxGeometry>
        </mxCell>
        <mxCell id="-KbUTqGcur0VWZPNFBT9-7" style="edgeStyle=orthogonalEdgeStyle;rounded=0;orthogonalLoop=1;jettySize=auto;html=1;exitX=0.5;exitY=1;exitDx=0;exitDy=0;entryX=0.5;entryY=0;entryDx=0;entryDy=0;" edge="1" parent="1" source="-KbUTqGcur0VWZPNFBT9-8" target="-KbUTqGcur0VWZPNFBT9-12">
          <mxGeometry relative="1" as="geometry" />
        </mxCell>
        <mxCell id="-KbUTqGcur0VWZPNFBT9-8" value="Potvrda brisanja aktivnosti" style="rounded=1;whiteSpace=wrap;html=1;" vertex="1" parent="1">
          <mxGeometry x="331.25" y="430" width="135" height="60" as="geometry" />
        </mxCell>
        <mxCell id="-KbUTqGcur0VWZPNFBT9-9" style="edgeStyle=orthogonalEdgeStyle;rounded=0;orthogonalLoop=1;jettySize=auto;html=1;exitX=1;exitY=0.5;exitDx=0;exitDy=0;entryX=0.5;entryY=0;entryDx=0;entryDy=0;" edge="1" parent="1" source="-KbUTqGcur0VWZPNFBT9-12" target="-KbUTqGcur0VWZPNFBT9-14">
          <mxGeometry relative="1" as="geometry" />
        </mxCell>
        <mxCell id="-KbUTqGcur0VWZPNFBT9-10" value="Ne" style="edgeLabel;html=1;align=center;verticalAlign=middle;resizable=0;points=[];" vertex="1" connectable="0" parent="-KbUTqGcur0VWZPNFBT9-9">
          <mxGeometry x="-0.1638" y="-2" relative="1" as="geometry">
            <mxPoint x="-8" y="-2" as="offset" />
          </mxGeometry>
        </mxCell>
        <mxCell id="-KbUTqGcur0VWZPNFBT9-11" style="edgeStyle=orthogonalEdgeStyle;rounded=0;orthogonalLoop=1;jettySize=auto;html=1;exitX=0.5;exitY=1;exitDx=0;exitDy=0;entryX=0.5;entryY=0;entryDx=0;entryDy=0;" edge="1" parent="1" source="-KbUTqGcur0VWZPNFBT9-12" target="-KbUTqGcur0VWZPNFBT9-16">
          <mxGeometry relative="1" as="geometry" />
        </mxCell>
        <mxCell id="-KbUTqGcur0VWZPNFBT9-12" value="Potvrda brisanja?" style="rhombus;whiteSpace=wrap;html=1;" vertex="1" parent="1">
          <mxGeometry x="366.25" y="560" width="65" height="60" as="geometry" />
        </mxCell>
        <mxCell id="-KbUTqGcur0VWZPNFBT9-13" style="edgeStyle=orthogonalEdgeStyle;rounded=0;orthogonalLoop=1;jettySize=auto;html=1;exitX=0.5;exitY=1;exitDx=0;exitDy=0;entryX=1;entryY=0.5;entryDx=0;entryDy=0;" edge="1" parent="1" source="-KbUTqGcur0VWZPNFBT9-14" target="-KbUTqGcur0VWZPNFBT9-19">
          <mxGeometry relative="1" as="geometry" />
        </mxCell>
        <mxCell id="-KbUTqGcur0VWZPNFBT9-14" value="Povratak na listu članova" style="rounded=1;whiteSpace=wrap;html=1;" vertex="1" parent="1">
          <mxGeometry x="550" y="690" width="120" height="60" as="geometry" />
        </mxCell>
        <mxCell id="-KbUTqGcur0VWZPNFBT9-15" value="" style="edgeStyle=orthogonalEdgeStyle;rounded=0;orthogonalLoop=1;jettySize=auto;html=1;" edge="1" parent="1" source="-KbUTqGcur0VWZPNFBT9-16" target="-KbUTqGcur0VWZPNFBT9-18">
          <mxGeometry relative="1" as="geometry" />
        </mxCell>
        <mxCell id="-KbUTqGcur0VWZPNFBT9-16" value="Uklanjanje aktivnosti iz baze podataka" style="rounded=1;whiteSpace=wrap;html=1;" vertex="1" parent="1">
          <mxGeometry x="338.75" y="690" width="120" height="60" as="geometry" />
        </mxCell>
        <mxCell id="-KbUTqGcur0VWZPNFBT9-17" style="edgeStyle=orthogonalEdgeStyle;rounded=0;orthogonalLoop=1;jettySize=auto;html=1;exitX=0.5;exitY=1;exitDx=0;exitDy=0;entryX=0.5;entryY=0;entryDx=0;entryDy=0;" edge="1" parent="1" source="-KbUTqGcur0VWZPNFBT9-18" target="-KbUTqGcur0VWZPNFBT9-19">
          <mxGeometry relative="1" as="geometry" />
        </mxCell>
        <mxCell id="-KbUTqGcur0VWZPNFBT9-18" value="Sustav prikazuje poruku o uspješnom brisanju aktivnosti" style="rounded=1;whiteSpace=wrap;html=1;" vertex="1" parent="1">
          <mxGeometry x="338.75" y="820" width="120" height="60" as="geometry" />
        </mxCell>
        <mxCell id="-KbUTqGcur0VWZPNFBT9-19" value="" style="ellipse;html=1;shape=endState;fillColor=strokeColor;" vertex="1" parent="1">
          <mxGeometry x="383.75" y="950" width="30" height="30" as="geometry" />
        </mxCell>
      </root>
    </mxGraphModel>
  </diagram>
</mxfile>
